<mxfile host="app.diagrams.net" agent="Mozilla/5.0 (Macintosh; Intel Mac OS X 10_15_7) AppleWebKit/605.1.15 (KHTML, like Gecko) Version/18.3.1 Safari/605.1.15" version="26.2.5">
  <diagram name="Page-1" id="ZZi6Wik2rTdPUKv9NgyV">
    <mxGraphModel dx="1008" dy="1395" grid="0" gridSize="10" guides="1" tooltips="1" connect="1" arrows="1" fold="1" page="0" pageScale="1" pageWidth="850" pageHeight="1100" math="0" shadow="0">
      <root>
        <mxCell id="0" />
        <mxCell id="1" parent="0" />
        <mxCell id="9r3gIEYfl_OUOJbv-qVY-15" value="Users" style="swimlane;fontStyle=0;childLayout=stackLayout;horizontal=1;startSize=26;horizontalStack=0;resizeParent=1;resizeParentMax=0;resizeLast=0;collapsible=1;marginBottom=0;align=center;fontSize=14;labelBackgroundColor=none;fillColor=#F694C1;strokeColor=#AF45ED;fontColor=#095C86;" vertex="1" parent="1">
          <mxGeometry x="598" y="-141" width="160" height="176" as="geometry">
            <mxRectangle x="-6" y="-122" width="72" height="28" as="alternateBounds" />
          </mxGeometry>
        </mxCell>
        <mxCell id="9r3gIEYfl_OUOJbv-qVY-16" value="UserID: int(Private key)" style="text;strokeColor=none;fillColor=none;spacingLeft=4;spacingRight=4;overflow=hidden;rotatable=0;points=[[0,0.5],[1,0.5]];portConstraint=eastwest;fontSize=12;whiteSpace=wrap;html=1;labelBackgroundColor=none;fontColor=#095C86;" vertex="1" parent="9r3gIEYfl_OUOJbv-qVY-15">
          <mxGeometry y="26" width="160" height="30" as="geometry" />
        </mxCell>
        <mxCell id="9r3gIEYfl_OUOJbv-qVY-17" value="Name: Character Var" style="text;strokeColor=none;fillColor=none;spacingLeft=4;spacingRight=4;overflow=hidden;rotatable=0;points=[[0,0.5],[1,0.5]];portConstraint=eastwest;fontSize=12;whiteSpace=wrap;html=1;labelBackgroundColor=none;fontColor=#095C86;" vertex="1" parent="9r3gIEYfl_OUOJbv-qVY-15">
          <mxGeometry y="56" width="160" height="30" as="geometry" />
        </mxCell>
        <mxCell id="9r3gIEYfl_OUOJbv-qVY-18" value="Email: Character var" style="text;strokeColor=none;fillColor=none;spacingLeft=4;spacingRight=4;overflow=hidden;rotatable=0;points=[[0,0.5],[1,0.5]];portConstraint=eastwest;fontSize=12;whiteSpace=wrap;html=1;labelBackgroundColor=none;fontColor=#095C86;" vertex="1" parent="9r3gIEYfl_OUOJbv-qVY-15">
          <mxGeometry y="86" width="160" height="61" as="geometry" />
        </mxCell>
        <mxCell id="9r3gIEYfl_OUOJbv-qVY-20" value="Password: Character var" style="text;strokeColor=none;fillColor=none;spacingLeft=4;spacingRight=4;overflow=hidden;rotatable=0;points=[[0,0.5],[1,0.5]];portConstraint=eastwest;fontSize=12;whiteSpace=wrap;html=1;labelBackgroundColor=none;fontColor=#095C86;" vertex="1" parent="9r3gIEYfl_OUOJbv-qVY-15">
          <mxGeometry y="147" width="160" height="29" as="geometry" />
        </mxCell>
        <mxCell id="9r3gIEYfl_OUOJbv-qVY-21" value="Survey" style="swimlane;fontStyle=0;childLayout=stackLayout;horizontal=1;startSize=26;horizontalStack=0;resizeParent=1;resizeParentMax=0;resizeLast=0;collapsible=1;marginBottom=0;align=center;fontSize=14;labelBackgroundColor=none;fillColor=#F694C1;strokeColor=#AF45ED;fontColor=#095C86;" vertex="1" parent="1">
          <mxGeometry x="915" y="-150" width="190" height="86" as="geometry" />
        </mxCell>
        <mxCell id="9r3gIEYfl_OUOJbv-qVY-22" value="Survey ID: int (Private Key)" style="text;strokeColor=none;fillColor=none;spacingLeft=4;spacingRight=4;overflow=hidden;rotatable=0;points=[[0,0.5],[1,0.5]];portConstraint=eastwest;fontSize=12;whiteSpace=wrap;html=1;labelBackgroundColor=none;fontColor=#095C86;" vertex="1" parent="9r3gIEYfl_OUOJbv-qVY-21">
          <mxGeometry y="26" width="190" height="30" as="geometry" />
        </mxCell>
        <mxCell id="9r3gIEYfl_OUOJbv-qVY-23" value="Question Text: Character Var" style="text;strokeColor=none;fillColor=none;spacingLeft=4;spacingRight=4;overflow=hidden;rotatable=0;points=[[0,0.5],[1,0.5]];portConstraint=eastwest;fontSize=12;whiteSpace=wrap;html=1;labelBackgroundColor=none;fontColor=#095C86;" vertex="1" parent="9r3gIEYfl_OUOJbv-qVY-21">
          <mxGeometry y="56" width="190" height="30" as="geometry" />
        </mxCell>
        <mxCell id="9r3gIEYfl_OUOJbv-qVY-25" value="Pets" style="swimlane;fontStyle=0;childLayout=stackLayout;horizontal=1;startSize=26;horizontalStack=0;resizeParent=1;resizeParentMax=0;resizeLast=0;collapsible=1;marginBottom=0;align=center;fontSize=14;labelBackgroundColor=none;fillColor=#F694C1;strokeColor=#AF45ED;fontColor=#095C86;" vertex="1" parent="1">
          <mxGeometry x="181" y="-141" width="217" height="200" as="geometry" />
        </mxCell>
        <mxCell id="9r3gIEYfl_OUOJbv-qVY-26" value="PetID: int (Private Key)" style="text;strokeColor=none;fillColor=none;spacingLeft=4;spacingRight=4;overflow=hidden;rotatable=0;points=[[0,0.5],[1,0.5]];portConstraint=eastwest;fontSize=12;whiteSpace=wrap;html=1;labelBackgroundColor=none;fontColor=#095C86;" vertex="1" parent="9r3gIEYfl_OUOJbv-qVY-25">
          <mxGeometry y="26" width="217" height="30" as="geometry" />
        </mxCell>
        <mxCell id="9r3gIEYfl_OUOJbv-qVY-27" value="Name: Character Var" style="text;strokeColor=none;fillColor=none;spacingLeft=4;spacingRight=4;overflow=hidden;rotatable=0;points=[[0,0.5],[1,0.5]];portConstraint=eastwest;fontSize=12;whiteSpace=wrap;html=1;labelBackgroundColor=none;fontColor=#095C86;" vertex="1" parent="9r3gIEYfl_OUOJbv-qVY-25">
          <mxGeometry y="56" width="217" height="30" as="geometry" />
        </mxCell>
        <mxCell id="9r3gIEYfl_OUOJbv-qVY-28" value="Age: int" style="text;strokeColor=none;fillColor=none;spacingLeft=4;spacingRight=4;overflow=hidden;rotatable=0;points=[[0,0.5],[1,0.5]];portConstraint=eastwest;fontSize=12;whiteSpace=wrap;html=1;labelBackgroundColor=none;fontColor=#095C86;" vertex="1" parent="9r3gIEYfl_OUOJbv-qVY-25">
          <mxGeometry y="86" width="217" height="30" as="geometry" />
        </mxCell>
        <mxCell id="9r3gIEYfl_OUOJbv-qVY-30" value="Breed: Character var" style="text;strokeColor=none;fillColor=none;spacingLeft=4;spacingRight=4;overflow=hidden;rotatable=0;points=[[0,0.5],[1,0.5]];portConstraint=eastwest;fontSize=12;whiteSpace=wrap;html=1;labelBackgroundColor=none;fontColor=#095C86;" vertex="1" parent="9r3gIEYfl_OUOJbv-qVY-25">
          <mxGeometry y="116" width="217" height="54" as="geometry" />
        </mxCell>
        <mxCell id="9r3gIEYfl_OUOJbv-qVY-29" value="PetTypeID: int (Foreign Key)" style="text;strokeColor=none;fillColor=none;spacingLeft=4;spacingRight=4;overflow=hidden;rotatable=0;points=[[0,0.5],[1,0.5]];portConstraint=eastwest;fontSize=12;whiteSpace=wrap;html=1;labelBackgroundColor=none;fontColor=#095C86;" vertex="1" parent="9r3gIEYfl_OUOJbv-qVY-25">
          <mxGeometry y="170" width="217" height="30" as="geometry" />
        </mxCell>
        <mxCell id="9r3gIEYfl_OUOJbv-qVY-31" value="Pet Types" style="swimlane;fontStyle=0;childLayout=stackLayout;horizontal=1;startSize=26;horizontalStack=0;resizeParent=1;resizeParentMax=0;resizeLast=0;collapsible=1;marginBottom=0;align=center;fontSize=14;labelBackgroundColor=none;fillColor=#F694C1;strokeColor=#AF45ED;fontColor=#095C86;" vertex="1" parent="1">
          <mxGeometry x="-9" y="278" width="160" height="86" as="geometry" />
        </mxCell>
        <mxCell id="9r3gIEYfl_OUOJbv-qVY-32" value="PetTypeID: int (foreign Key)" style="text;strokeColor=none;fillColor=none;spacingLeft=4;spacingRight=4;overflow=hidden;rotatable=0;points=[[0,0.5],[1,0.5]];portConstraint=eastwest;fontSize=12;whiteSpace=wrap;html=1;labelBackgroundColor=none;fontColor=#095C86;" vertex="1" parent="9r3gIEYfl_OUOJbv-qVY-31">
          <mxGeometry y="26" width="160" height="30" as="geometry" />
        </mxCell>
        <mxCell id="9r3gIEYfl_OUOJbv-qVY-33" value="NameType: Character Var" style="text;strokeColor=none;fillColor=none;spacingLeft=4;spacingRight=4;overflow=hidden;rotatable=0;points=[[0,0.5],[1,0.5]];portConstraint=eastwest;fontSize=12;whiteSpace=wrap;html=1;labelBackgroundColor=none;fontColor=#095C86;" vertex="1" parent="9r3gIEYfl_OUOJbv-qVY-31">
          <mxGeometry y="56" width="160" height="30" as="geometry" />
        </mxCell>
        <mxCell id="9r3gIEYfl_OUOJbv-qVY-39" value="Documents" style="swimlane;fontStyle=0;childLayout=stackLayout;horizontal=1;startSize=26;horizontalStack=0;resizeParent=1;resizeParentMax=0;resizeLast=0;collapsible=1;marginBottom=0;align=center;fontSize=14;labelBackgroundColor=none;fillColor=#F694C1;strokeColor=#AF45ED;fontColor=#095C86;" vertex="1" parent="1">
          <mxGeometry x="251" y="252" width="160" height="143" as="geometry" />
        </mxCell>
        <mxCell id="9r3gIEYfl_OUOJbv-qVY-40" value="DocID: int (Private Key)" style="text;strokeColor=none;fillColor=none;spacingLeft=4;spacingRight=4;overflow=hidden;rotatable=0;points=[[0,0.5],[1,0.5]];portConstraint=eastwest;fontSize=12;whiteSpace=wrap;html=1;labelBackgroundColor=none;fontColor=#095C86;" vertex="1" parent="9r3gIEYfl_OUOJbv-qVY-39">
          <mxGeometry y="26" width="160" height="30" as="geometry" />
        </mxCell>
        <mxCell id="9r3gIEYfl_OUOJbv-qVY-41" value="PetID:int (Foreign Key" style="text;strokeColor=none;fillColor=none;spacingLeft=4;spacingRight=4;overflow=hidden;rotatable=0;points=[[0,0.5],[1,0.5]];portConstraint=eastwest;fontSize=12;whiteSpace=wrap;html=1;labelBackgroundColor=none;fontColor=#095C86;" vertex="1" parent="9r3gIEYfl_OUOJbv-qVY-39">
          <mxGeometry y="56" width="160" height="30" as="geometry" />
        </mxCell>
        <mxCell id="9r3gIEYfl_OUOJbv-qVY-42" value="File Name : Character Var&lt;div&gt;&lt;br&gt;&lt;/div&gt;&lt;div&gt;FileType: Character Var&lt;/div&gt;" style="text;strokeColor=none;fillColor=none;spacingLeft=4;spacingRight=4;overflow=hidden;rotatable=0;points=[[0,0.5],[1,0.5]];portConstraint=eastwest;fontSize=12;whiteSpace=wrap;html=1;labelBackgroundColor=none;fontColor=#095C86;" vertex="1" parent="9r3gIEYfl_OUOJbv-qVY-39">
          <mxGeometry y="86" width="160" height="57" as="geometry" />
        </mxCell>
        <mxCell id="9r3gIEYfl_OUOJbv-qVY-43" value="SavedPets" style="swimlane;fontStyle=0;childLayout=stackLayout;horizontal=1;startSize=26;horizontalStack=0;resizeParent=1;resizeParentMax=0;resizeLast=0;collapsible=1;marginBottom=0;align=center;fontSize=14;labelBackgroundColor=none;fillColor=#F694C1;strokeColor=#AF45ED;fontColor=#095C86;" vertex="1" parent="1">
          <mxGeometry x="502" y="261" width="160" height="130" as="geometry" />
        </mxCell>
        <mxCell id="9r3gIEYfl_OUOJbv-qVY-44" value="SavedPetID: int (Private Key)" style="text;strokeColor=none;fillColor=none;spacingLeft=4;spacingRight=4;overflow=hidden;rotatable=0;points=[[0,0.5],[1,0.5]];portConstraint=eastwest;fontSize=12;whiteSpace=wrap;html=1;labelBackgroundColor=none;fontColor=#095C86;" vertex="1" parent="9r3gIEYfl_OUOJbv-qVY-43">
          <mxGeometry y="26" width="160" height="30" as="geometry" />
        </mxCell>
        <mxCell id="9r3gIEYfl_OUOJbv-qVY-45" value="&lt;div&gt;&lt;br&gt;&lt;/div&gt;UserID: int (Foreign Key)" style="text;strokeColor=none;fillColor=none;spacingLeft=4;spacingRight=4;overflow=hidden;rotatable=0;points=[[0,0.5],[1,0.5]];portConstraint=eastwest;fontSize=12;whiteSpace=wrap;html=1;labelBackgroundColor=none;fontColor=#095C86;" vertex="1" parent="9r3gIEYfl_OUOJbv-qVY-43">
          <mxGeometry y="56" width="160" height="30" as="geometry" />
        </mxCell>
        <mxCell id="9r3gIEYfl_OUOJbv-qVY-46" value="&lt;div&gt;&lt;br&gt;&lt;/div&gt;PetID: int (Foreign Key)" style="text;strokeColor=none;fillColor=none;spacingLeft=4;spacingRight=4;overflow=hidden;rotatable=0;points=[[0,0.5],[1,0.5]];portConstraint=eastwest;fontSize=12;whiteSpace=wrap;html=1;labelBackgroundColor=none;fontColor=#095C86;" vertex="1" parent="9r3gIEYfl_OUOJbv-qVY-43">
          <mxGeometry y="86" width="160" height="44" as="geometry" />
        </mxCell>
        <mxCell id="9r3gIEYfl_OUOJbv-qVY-47" value="UserAnswers: " style="swimlane;fontStyle=0;childLayout=stackLayout;horizontal=1;startSize=26;horizontalStack=0;resizeParent=1;resizeParentMax=0;resizeLast=0;collapsible=1;marginBottom=0;align=center;fontSize=14;labelBackgroundColor=none;fillColor=#F694C1;strokeColor=#AF45ED;fontColor=#095C86;" vertex="1" parent="1">
          <mxGeometry x="893" y="261" width="202" height="147" as="geometry" />
        </mxCell>
        <mxCell id="9r3gIEYfl_OUOJbv-qVY-48" value="AnswerID: int (Private Key)" style="text;strokeColor=none;fillColor=none;spacingLeft=4;spacingRight=4;overflow=hidden;rotatable=0;points=[[0,0.5],[1,0.5]];portConstraint=eastwest;fontSize=12;whiteSpace=wrap;html=1;labelBackgroundColor=none;fontColor=#095C86;" vertex="1" parent="9r3gIEYfl_OUOJbv-qVY-47">
          <mxGeometry y="26" width="202" height="30" as="geometry" />
        </mxCell>
        <mxCell id="9r3gIEYfl_OUOJbv-qVY-49" value="UserID: int (Foreign Key)" style="text;strokeColor=none;fillColor=none;spacingLeft=4;spacingRight=4;overflow=hidden;rotatable=0;points=[[0,0.5],[1,0.5]];portConstraint=eastwest;fontSize=12;whiteSpace=wrap;html=1;labelBackgroundColor=none;fontColor=#095C86;" vertex="1" parent="9r3gIEYfl_OUOJbv-qVY-47">
          <mxGeometry y="56" width="202" height="30" as="geometry" />
        </mxCell>
        <mxCell id="9r3gIEYfl_OUOJbv-qVY-50" value="QuestionID: int (Foreign Key)&lt;div&gt;&lt;br&gt;&lt;/div&gt;&lt;div&gt;ChoiceID: int (Foreign Key)&lt;/div&gt;" style="text;strokeColor=none;fillColor=none;spacingLeft=4;spacingRight=4;overflow=hidden;rotatable=0;points=[[0,0.5],[1,0.5]];portConstraint=eastwest;fontSize=12;whiteSpace=wrap;html=1;labelBackgroundColor=none;fontColor=#095C86;" vertex="1" parent="9r3gIEYfl_OUOJbv-qVY-47">
          <mxGeometry y="86" width="202" height="61" as="geometry" />
        </mxCell>
        <mxCell id="9r3gIEYfl_OUOJbv-qVY-55" value="Choices" style="swimlane;fontStyle=0;childLayout=stackLayout;horizontal=1;startSize=26;horizontalStack=0;resizeParent=1;resizeParentMax=0;resizeLast=0;collapsible=1;marginBottom=0;align=center;fontSize=14;labelBackgroundColor=none;fillColor=#F694C1;strokeColor=#AF45ED;fontColor=#095C86;" vertex="1" parent="1">
          <mxGeometry x="1231" y="28" width="160" height="130" as="geometry" />
        </mxCell>
        <mxCell id="9r3gIEYfl_OUOJbv-qVY-56" value="ChoiceID: int (Private Key)" style="text;strokeColor=none;fillColor=none;spacingLeft=4;spacingRight=4;overflow=hidden;rotatable=0;points=[[0,0.5],[1,0.5]];portConstraint=eastwest;fontSize=12;whiteSpace=wrap;html=1;labelBackgroundColor=none;fontColor=#095C86;" vertex="1" parent="9r3gIEYfl_OUOJbv-qVY-55">
          <mxGeometry y="26" width="160" height="30" as="geometry" />
        </mxCell>
        <mxCell id="9r3gIEYfl_OUOJbv-qVY-57" value="&lt;div&gt;QuestionID: int (Foreign Key)&lt;/div&gt;" style="text;strokeColor=none;fillColor=none;spacingLeft=4;spacingRight=4;overflow=hidden;rotatable=0;points=[[0,0.5],[1,0.5]];portConstraint=eastwest;fontSize=12;whiteSpace=wrap;html=1;labelBackgroundColor=none;fontColor=#095C86;" vertex="1" parent="9r3gIEYfl_OUOJbv-qVY-55">
          <mxGeometry y="56" width="160" height="30" as="geometry" />
        </mxCell>
        <mxCell id="9r3gIEYfl_OUOJbv-qVY-58" value="ChoicesText: Character Variable" style="text;strokeColor=none;fillColor=none;spacingLeft=4;spacingRight=4;overflow=hidden;rotatable=0;points=[[0,0.5],[1,0.5]];portConstraint=eastwest;fontSize=12;whiteSpace=wrap;html=1;labelBackgroundColor=none;fontColor=#095C86;" vertex="1" parent="9r3gIEYfl_OUOJbv-qVY-55">
          <mxGeometry y="86" width="160" height="44" as="geometry" />
        </mxCell>
        <mxCell id="9r3gIEYfl_OUOJbv-qVY-59" style="edgeStyle=none;curved=1;rounded=0;orthogonalLoop=1;jettySize=auto;html=1;entryX=0.5;entryY=0;entryDx=0;entryDy=0;fontSize=12;startSize=8;endSize=8;labelBackgroundColor=none;strokeColor=#60E696;fontColor=default;" edge="1" parent="1" source="9r3gIEYfl_OUOJbv-qVY-29" target="9r3gIEYfl_OUOJbv-qVY-31">
          <mxGeometry relative="1" as="geometry" />
        </mxCell>
        <mxCell id="9r3gIEYfl_OUOJbv-qVY-60" style="edgeStyle=none;curved=1;rounded=0;orthogonalLoop=1;jettySize=auto;html=1;entryX=0.5;entryY=0;entryDx=0;entryDy=0;fontSize=12;startSize=8;endSize=8;labelBackgroundColor=none;strokeColor=#60E696;fontColor=default;" edge="1" parent="1" source="9r3gIEYfl_OUOJbv-qVY-29" target="9r3gIEYfl_OUOJbv-qVY-39">
          <mxGeometry relative="1" as="geometry" />
        </mxCell>
        <mxCell id="9r3gIEYfl_OUOJbv-qVY-61" style="edgeStyle=none;curved=1;rounded=0;orthogonalLoop=1;jettySize=auto;html=1;exitX=1;exitY=0.5;exitDx=0;exitDy=0;fontSize=12;startSize=8;endSize=8;labelBackgroundColor=none;strokeColor=#60E696;fontColor=default;" edge="1" parent="1" source="9r3gIEYfl_OUOJbv-qVY-29" target="9r3gIEYfl_OUOJbv-qVY-43">
          <mxGeometry relative="1" as="geometry" />
        </mxCell>
        <mxCell id="9r3gIEYfl_OUOJbv-qVY-62" style="edgeStyle=none;curved=1;rounded=0;orthogonalLoop=1;jettySize=auto;html=1;fontSize=12;startSize=8;endSize=8;labelBackgroundColor=none;strokeColor=#60E696;fontColor=default;" edge="1" parent="1" source="9r3gIEYfl_OUOJbv-qVY-18" target="9r3gIEYfl_OUOJbv-qVY-43">
          <mxGeometry relative="1" as="geometry" />
        </mxCell>
        <mxCell id="9r3gIEYfl_OUOJbv-qVY-63" style="edgeStyle=none;curved=1;rounded=0;orthogonalLoop=1;jettySize=auto;html=1;fontSize=12;startSize=8;endSize=8;labelBackgroundColor=none;strokeColor=#60E696;fontColor=default;" edge="1" parent="1" source="9r3gIEYfl_OUOJbv-qVY-20" target="9r3gIEYfl_OUOJbv-qVY-48">
          <mxGeometry relative="1" as="geometry" />
        </mxCell>
        <mxCell id="9r3gIEYfl_OUOJbv-qVY-64" style="edgeStyle=none;curved=1;rounded=0;orthogonalLoop=1;jettySize=auto;html=1;fontSize=12;startSize=8;endSize=8;labelBackgroundColor=none;strokeColor=#60E696;fontColor=default;" edge="1" parent="1" source="9r3gIEYfl_OUOJbv-qVY-23" target="9r3gIEYfl_OUOJbv-qVY-48">
          <mxGeometry relative="1" as="geometry" />
        </mxCell>
        <mxCell id="9r3gIEYfl_OUOJbv-qVY-65" style="edgeStyle=none;curved=1;rounded=0;orthogonalLoop=1;jettySize=auto;html=1;entryX=0.044;entryY=0.967;entryDx=0;entryDy=0;entryPerimeter=0;fontSize=12;startSize=8;endSize=8;labelBackgroundColor=none;strokeColor=#60E696;fontColor=default;" edge="1" parent="1" source="9r3gIEYfl_OUOJbv-qVY-23" target="9r3gIEYfl_OUOJbv-qVY-56">
          <mxGeometry relative="1" as="geometry" />
        </mxCell>
        <mxCell id="9r3gIEYfl_OUOJbv-qVY-66" value="AdminID" style="swimlane;fontStyle=0;childLayout=stackLayout;horizontal=1;startSize=26;horizontalStack=0;resizeParent=1;resizeParentMax=0;resizeLast=0;collapsible=1;marginBottom=0;align=center;fontSize=14;labelBackgroundColor=none;fillColor=#F694C1;strokeColor=#AF45ED;fontColor=#095C86;" vertex="1" parent="1">
          <mxGeometry x="1247" y="-195" width="160" height="116" as="geometry" />
        </mxCell>
        <mxCell id="9r3gIEYfl_OUOJbv-qVY-67" value="AdminID: int (private key)" style="text;strokeColor=none;fillColor=none;spacingLeft=4;spacingRight=4;overflow=hidden;rotatable=0;points=[[0,0.5],[1,0.5]];portConstraint=eastwest;fontSize=12;whiteSpace=wrap;html=1;labelBackgroundColor=none;fontColor=#095C86;" vertex="1" parent="9r3gIEYfl_OUOJbv-qVY-66">
          <mxGeometry y="26" width="160" height="30" as="geometry" />
        </mxCell>
        <mxCell id="9r3gIEYfl_OUOJbv-qVY-68" value="Name: &amp;nbsp;Character Var" style="text;strokeColor=none;fillColor=none;spacingLeft=4;spacingRight=4;overflow=hidden;rotatable=0;points=[[0,0.5],[1,0.5]];portConstraint=eastwest;fontSize=12;whiteSpace=wrap;html=1;labelBackgroundColor=none;fontColor=#095C86;" vertex="1" parent="9r3gIEYfl_OUOJbv-qVY-66">
          <mxGeometry y="56" width="160" height="30" as="geometry" />
        </mxCell>
        <mxCell id="9r3gIEYfl_OUOJbv-qVY-69" value="Email: Character Var" style="text;strokeColor=none;fillColor=none;spacingLeft=4;spacingRight=4;overflow=hidden;rotatable=0;points=[[0,0.5],[1,0.5]];portConstraint=eastwest;fontSize=12;whiteSpace=wrap;html=1;labelBackgroundColor=none;fontColor=#095C86;" vertex="1" parent="9r3gIEYfl_OUOJbv-qVY-66">
          <mxGeometry y="86" width="160" height="30" as="geometry" />
        </mxCell>
        <mxCell id="9r3gIEYfl_OUOJbv-qVY-70" value="N Pets -&amp;gt; 1 Type" style="text;strokeColor=none;fillColor=none;html=1;align=center;verticalAlign=middle;whiteSpace=wrap;rounded=0;fontSize=16;labelBackgroundColor=none;fontColor=#095C86;" vertex="1" parent="1">
          <mxGeometry x="-22" y="173" width="178" height="30" as="geometry" />
        </mxCell>
        <mxCell id="9r3gIEYfl_OUOJbv-qVY-71" value="1 Pet-&amp;gt; N Documents" style="text;strokeColor=none;fillColor=none;html=1;align=center;verticalAlign=middle;whiteSpace=wrap;rounded=0;fontSize=16;labelBackgroundColor=none;fontColor=#095C86;" vertex="1" parent="1">
          <mxGeometry x="161" y="176" width="161" height="30" as="geometry" />
        </mxCell>
        <mxCell id="9r3gIEYfl_OUOJbv-qVY-72" value="1 Pet -&amp;gt; N SavedPets" style="text;strokeColor=none;fillColor=none;html=1;align=center;verticalAlign=middle;whiteSpace=wrap;rounded=0;fontSize=16;labelBackgroundColor=none;fontColor=#095C86;" vertex="1" parent="1">
          <mxGeometry x="466" y="149" width="178" height="30" as="geometry" />
        </mxCell>
        <mxCell id="9r3gIEYfl_OUOJbv-qVY-73" value="1 User -&amp;gt; N SavedPets" style="text;strokeColor=none;fillColor=none;html=1;align=center;verticalAlign=middle;whiteSpace=wrap;rounded=0;fontSize=16;labelBackgroundColor=none;fontColor=#095C86;" vertex="1" parent="1">
          <mxGeometry x="629" y="201" width="178" height="30" as="geometry" />
        </mxCell>
        <mxCell id="9r3gIEYfl_OUOJbv-qVY-74" value="1 User -&amp;gt; N Answers" style="text;strokeColor=none;fillColor=none;html=1;align=center;verticalAlign=middle;whiteSpace=wrap;rounded=0;fontSize=16;labelBackgroundColor=none;fontColor=#095C86;" vertex="1" parent="1">
          <mxGeometry x="817" y="114" width="178" height="30" as="geometry" />
        </mxCell>
        <mxCell id="9r3gIEYfl_OUOJbv-qVY-75" style="edgeStyle=none;curved=1;rounded=0;orthogonalLoop=1;jettySize=auto;html=1;entryX=1;entryY=0.5;entryDx=0;entryDy=0;fontSize=12;startSize=8;endSize=8;labelBackgroundColor=none;strokeColor=#60E696;fontColor=default;" edge="1" parent="1" source="9r3gIEYfl_OUOJbv-qVY-58" target="9r3gIEYfl_OUOJbv-qVY-49">
          <mxGeometry relative="1" as="geometry" />
        </mxCell>
        <mxCell id="9r3gIEYfl_OUOJbv-qVY-76" value="1 Question -&amp;gt; N Answers" style="text;strokeColor=none;fillColor=none;html=1;align=center;verticalAlign=middle;whiteSpace=wrap;rounded=0;fontSize=16;labelBackgroundColor=none;fontColor=#095C86;" vertex="1" parent="1">
          <mxGeometry x="1014" y="59" width="178" height="30" as="geometry" />
        </mxCell>
        <mxCell id="9r3gIEYfl_OUOJbv-qVY-77" value="1 Question -&amp;gt; N Choices" style="text;strokeColor=none;fillColor=none;html=1;align=center;verticalAlign=middle;whiteSpace=wrap;rounded=0;fontSize=16;labelBackgroundColor=none;fontColor=#095C86;" vertex="1" parent="1">
          <mxGeometry x="1144" y="-20" width="178" height="30" as="geometry" />
        </mxCell>
        <mxCell id="9r3gIEYfl_OUOJbv-qVY-78" value="1 Choice -&amp;gt; N Answers" style="text;strokeColor=none;fillColor=none;html=1;align=center;verticalAlign=middle;whiteSpace=wrap;rounded=0;fontSize=16;labelBackgroundColor=none;fontColor=#095C86;" vertex="1" parent="1">
          <mxGeometry x="1182" y="266" width="178" height="30" as="geometry" />
        </mxCell>
      </root>
    </mxGraphModel>
  </diagram>
</mxfile>
